<?xml version="1.0" encoding="UTF-8" standalone="no"?>
<!DOCTYPE svg PUBLIC "-//W3C//DTD SVG 1.1//EN" "http://www.w3.org/Graphics/SVG/1.1/DTD/svg11.dtd">
<svg width="100%" height="100%" viewBox="0 0 1080 1080" version="1.1" xmlns="http://www.w3.org/2000/svg" xmlns:xlink="http://www.w3.org/1999/xlink" xml:space="preserve" xmlns:serif="http://www.serif.com/" style="fill-rule:evenodd;clip-rule:evenodd;stroke-linecap:round;stroke-linejoin:round;stroke-miterlimit:1.5;">
    <g transform="matrix(1,0,0,1,46.2445,0)">
        <g transform="matrix(0.782949,-0.474187,0.518041,0.855356,-267.17,289.55)">
            <path d="M246.911,837.291L246.911,367.877C246.911,245.011 346.515,145.408 469.381,145.408C469.381,145.408 349.286,212.093 358.146,491.349C367.007,770.606 246.911,837.291 246.911,837.291Z" style="fill:rgb(135,213,170);stroke:rgb(135,213,170);stroke-width:1.04px;"/>
        </g>
        <g transform="matrix(0.782949,-0.474187,0.518041,0.855356,-267.17,289.55)">
            <path d="M469.381,145.408L469.381,614.822C469.381,737.688 369.778,837.291 246.911,837.291C246.911,837.291 367.007,770.606 358.146,491.349C349.286,212.093 469.381,145.408 469.381,145.408Z" style="fill:rgb(60,179,113);stroke:rgb(60,179,113);stroke-width:1.04px;"/>
        </g>
        <g transform="matrix(0.782949,-0.474187,0.518041,0.855356,40.4793,289.55)">
            <path d="M246.911,837.291L246.911,367.877C246.911,245.011 346.515,145.408 469.381,145.408C469.381,145.408 349.286,212.093 358.146,491.349C367.007,770.606 246.911,837.291 246.911,837.291Z" style="fill:rgb(135,213,170);stroke:rgb(135,213,170);stroke-width:1.04px;"/>
        </g>
        <g transform="matrix(0.782949,-0.474187,0.518041,0.855356,40.4793,289.55)">
            <path d="M469.381,145.408L469.381,614.822C469.381,737.688 369.778,837.291 246.911,837.291C246.911,837.291 367.007,770.606 358.146,491.349C349.286,212.093 469.381,145.408 469.381,145.408Z" style="fill:rgb(60,179,113);stroke:rgb(60,179,113);stroke-width:1.04px;"/>
        </g>
        <g transform="matrix(0.707107,0.707107,-0.707107,0.707107,498.508,-473.068)">
            <path d="M925.575,503.754C809.289,503.754 715.021,409.486 715.021,293.2L715.021,226.681C715.021,226.681 763.219,231.828 820.298,365.218C877.377,498.608 925.575,503.754 925.575,503.754Z" style="fill:rgb(135,213,170);stroke:rgb(135,213,170);stroke-width:1px;"/>
        </g>
        <g transform="matrix(0.707107,0.707107,-0.707107,0.707107,498.508,-473.068)">
            <path d="M715.021,226.681C831.307,226.681 925.575,320.949 925.575,437.235L925.575,503.754C925.575,503.754 877.377,498.608 820.298,365.218C763.219,231.828 715.021,226.681 715.021,226.681Z" style="fill:rgb(60,179,113);stroke:rgb(60,179,113);stroke-width:1px;"/>
        </g>
    </g>
</svg>
